<?xml version="1.0" encoding="UTF-8"?>
<svg version="1.1" xmlns="http://www.w3.org/2000/svg" width="140" height="160">
<path d="M0 0 C46.2 0 92.4 0 140 0 C140 52.8 140 105.6 140 160 C93.8 160 47.6 160 0 160 C0 107.2 0 54.4 0 0 Z " fill="#F8F8F8" transform="translate(0,0)"/>
<path d="M0 0 C10.97634488 8.63790618 18.45965625 20.66913756 22.0625 34.1875 C23.5734534 47.15889241 20.78129882 58.66822995 13.0625 69.1875 C7.96459745 75.33787276 2.15569206 79.57993097 -4.9375 83.1875 C-5.85789062 83.67605469 -6.77828125 84.16460937 -7.7265625 84.66796875 C-19.47337659 90.08607292 -35.39624573 90.47137804 -47.65625 86.28125 C-61.37535242 79.70359815 -67.98702647 66.02902511 -72.9765625 52.3359375 C-75.96532785 42.64339939 -75.8574239 32.87633838 -72.9375 23.1875 C-72.669375 22.2903125 -72.40125 21.393125 -72.125 20.46875 C-68.85363229 10.54560127 -63.8453945 3.73096468 -54.9375 -1.8125 C-51.5625 -3.5 -51.5625 -3.5 -47.9375 -4.8125 C-47.28007813 -5.0909375 -46.62265625 -5.369375 -45.9453125 -5.65625 C-31.1451346 -11.18711233 -12.83961167 -8.87570471 0 0 Z " fill="#3D57A0" transform="translate(103.9375,42.8125)"/>
<path d="M0 0 C0.95777344 0.00902344 1.91554687 0.01804688 2.90234375 0.02734375 C3.97162109 0.04474609 3.97162109 0.04474609 5.0625 0.0625 C5.0625 1.0525 5.0625 2.0425 5.0625 3.0625 C4.37623535 3.20872803 3.6899707 3.35495605 2.98291016 3.50561523 C-0.11616741 4.16760257 -3.21433659 4.83374803 -6.3125 5.5 C-7.93285156 5.84514648 -7.93285156 5.84514648 -9.5859375 6.19726562 C-11.1328125 6.53081055 -11.1328125 6.53081055 -12.7109375 6.87109375 C-14.14058838 7.17744751 -14.14058838 7.17744751 -15.59912109 7.48999023 C-17.9406062 7.97168565 -17.9406062 7.97168565 -19.9375 9.0625 C-20.78178354 11.1808715 -20.78178354 11.1808715 -21.4453125 13.75390625 C-21.84169922 15.17026367 -21.84169922 15.17026367 -22.24609375 16.61523438 C-22.51550781 17.60845703 -22.78492187 18.60167969 -23.0625 19.625 C-23.33964844 20.62208984 -23.61679688 21.61917969 -23.90234375 22.64648438 C-24.5878123 25.11653486 -25.26356299 27.58927833 -25.9375 30.0625 C-20.9875 29.4025 -16.0375 28.7425 -10.9375 28.0625 C-16.5625 33.6875 -16.5625 33.6875 -22.25 34.875 C-23.85294922 35.22498047 -23.85294922 35.22498047 -25.48828125 35.58203125 C-26.29652344 35.74058594 -27.10476562 35.89914063 -27.9375 36.0625 C-28.87604006 43.10155044 -29.04558032 49.96522572 -28.9375 57.0625 C-29.9275 57.0625 -30.9175 57.0625 -31.9375 57.0625 C-34.47757418 53.25238873 -34.15616887 50.45637757 -33.9375 46.0625 C-33.89625 45.01707031 -33.855 43.97164062 -33.8125 42.89453125 C-33.46089089 36.52894133 -32.59688869 31.89269829 -29.9375 26.0625 C-28.80307755 21.42214755 -27.85424438 16.75024964 -26.9375 12.0625 C-27.9275 12.0625 -28.9175 12.0625 -29.9375 12.0625 C-30.2675 12.7225 -30.5975 13.3825 -30.9375 14.0625 C-31.5975 14.0625 -32.2575 14.0625 -32.9375 14.0625 C-32.9375 13.4025 -32.9375 12.7425 -32.9375 12.0625 C-33.5975 12.0625 -34.2575 12.0625 -34.9375 12.0625 C-34.6075 10.4125 -34.2775 8.7625 -33.9375 7.0625 C-30.58558052 6.07552841 -27.23060737 5.09935244 -23.875 4.125 C-22.93205078 3.84720703 -21.98910156 3.56941406 -21.01757812 3.28320312 C-13.977012 1.24708122 -7.36738903 -0.09095542 0 0 Z " fill="#ECEEF2" transform="translate(91.9375,54.9375)"/>
<path d="M0 0 C0 0.99 0 1.98 0 3 C-2.43578787 3.53030068 -4.87305975 4.04952312 -7.3125 4.5625 C-8.00279297 4.71396484 -8.69308594 4.86542969 -9.40429688 5.02148438 C-12.75544066 5.71761569 -14.69534072 6.10155309 -18 5 C-18 3.66666667 -18 2.33333333 -18 1 C-11.97403427 -0.0712828 -6.11090483 -0.09945415 0 0 Z " fill="#E1E4ED" transform="translate(97,55)"/>
</svg>
